<svg id="Layer_1" data-name="Layer 1" xmlns="http://www.w3.org/2000/svg" xmlns:xlink="http://www.w3.org/1999/xlink" viewBox="0 0 228.28 160.99"><defs><style>.cls-1{fill:url(#linear-gradient);}.cls-2{fill:url(#linear-gradient-2);}.cls-3{fill:url(#linear-gradient-3);}.cls-4{fill:url(#linear-gradient-4);}.cls-5{fill:url(#linear-gradient-5);}.cls-6{fill:url(#linear-gradient-6);}.cls-7{fill:url(#linear-gradient-7);}.cls-8{fill:url(#linear-gradient-8);}.cls-9{fill:url(#linear-gradient-9);}</style><linearGradient id="linear-gradient" x1="59.56" y1="4.42" x2="43.25" y2="49.24" gradientUnits="userSpaceOnUse"><stop offset="0" stop-color="#fff"/><stop offset="1" stop-color="#ebebeb"/></linearGradient><linearGradient id="linear-gradient-2" x1="210.11" y1="-3.27" x2="174.48" y2="94.61" xlink:href="#linear-gradient"/><linearGradient id="linear-gradient-3" x1="11.8" y1="141.56" x2="4.35" y2="162.04" xlink:href="#linear-gradient"/><linearGradient id="linear-gradient-4" x1="58.67" y1="135.19" x2="47.91" y2="164.78" xlink:href="#linear-gradient"/><linearGradient id="linear-gradient-5" x1="103.62" y1="135.19" x2="92.85" y2="164.78" xlink:href="#linear-gradient"/><linearGradient id="linear-gradient-6" x1="139.64" y1="138.88" x2="131.68" y2="160.74" xlink:href="#linear-gradient"/><linearGradient id="linear-gradient-7" x1="178.49" y1="141.71" x2="171.22" y2="161.68" xlink:href="#linear-gradient"/><linearGradient id="linear-gradient-8" x1="221.64" y1="134.76" x2="211.7" y2="162.07" xlink:href="#linear-gradient"/><linearGradient id="linear-gradient-9" x1="127.93" y1="77.76" x2="100.62" y2="152.81" xlink:href="#linear-gradient"/></defs><title>OK-säätiölogo Gradient</title><path class="cls-1" d="M43.44,1.72C22.29,1.72,5.61,14.55-.28,33.39l15,5.29c3.61-12.74,14.11-22.14,28.77-22.14,18.33,0,30.16,14.69,30.16,32.24A36.68,36.68,0,0,1,72.17,59l14.94,5.29a51.33,51.33,0,0,0,2.35-15.54C89.46,21.87,70,1.72,43.44,1.72Z" transform="translate(0.28 -1.72)"/><polygon class="cls-2" points="187.76 46.28 223.38 1.56 203.88 1.56 171.38 42.38 171.38 1.56 155.78 1.56 155.78 87.8 169.24 92.56 171.38 92.56 171.38 51.48 207.13 92.56 227.8 92.56 187.76 46.28"/><path class="cls-3" d="M7.6,153.46c-3.13-1.09-6.66-2.8-6.66-6.75,0-3,2.68-6,7-6a9.14,9.14,0,0,1,6.93,3.38l-2.52,2.49a6.16,6.16,0,0,0-4.41-2.4c-1.83,0-3.26,1.12-3.26,2.55,0,1.86,1.67,2.43,4.59,3.53,3.26,1.21,6,2.67,6,6.54s-3.4,5.93-7.42,5.93A9.29,9.29,0,0,1,0,158.36l2.74-2.31s1.82,3.19,5,3.19c1.83,0,3.71-.73,3.71-2.46S10.13,154.34,7.6,153.46Z" transform="translate(0.28 -1.72)"/><path class="cls-4" d="M49.48,141.06h3.71l8.27,21.28H57.78l-2-5.05h-9l-1.95,5.05H41.2Zm-1.28-7.24a2.4,2.4,0,1,1-2.4,2.4A2.38,2.38,0,0,1,48.2,133.82ZM48.14,154h6.38l-3.19-8.3Zm6.32-20.13a2.4,2.4,0,1,1-2.4,2.4A2.38,2.38,0,0,1,54.46,133.82Z" transform="translate(0.28 -1.72)"/><path class="cls-5" d="M94.42,141.06h3.71l8.27,21.28h-3.68l-1.94-5.05h-9l-2,5.05H86.15Zm-1.28-7.24a2.4,2.4,0,1,1-2.4,2.4A2.39,2.39,0,0,1,93.14,133.82ZM93.08,154h6.39l-3.19-8.3Zm6.33-20.13a2.4,2.4,0,1,1-2.4,2.4A2.38,2.38,0,0,1,99.41,133.82Z" transform="translate(0.28 -1.72)"/><path class="cls-6" d="M136.08,144.52h-5.87v-3.46H145.6v3.46h-5.87v17.82h-3.65Z" transform="translate(0.28 -1.72)"/><path class="cls-7" d="M173,141.06h3.65v21.28H173Z" transform="translate(0.28 -1.72)"/><path class="cls-8" d="M226.25,151.7a10.61,10.61,0,0,1-10.77,11c-6.2,0-10.76-4.72-10.76-11s4.56-11,10.76-11A10.6,10.6,0,0,1,226.25,151.7Zm-3.71,0c0-4.11-2.77-7.54-7.06-7.54s-7,3.43-7,7.54,2.76,7.54,7,7.54S222.54,155.8,222.54,151.7Zm-10.19-17.88a2.4,2.4,0,1,1-2.4,2.4A2.38,2.38,0,0,1,212.35,133.82Zm6.26,0a2.4,2.4,0,1,1-2.4,2.4A2.39,2.39,0,0,1,218.61,133.82Z" transform="translate(0.28 -1.72)"/><rect class="cls-9" x="0.28" y="114.28" width="228" height="2"/></svg>
